<mxfile host="app.diagrams.net" modified="2022-12-05T10:45:55.237Z" agent="5.0 (Macintosh; Intel Mac OS X 10_15_7) AppleWebKit/537.36 (KHTML, like Gecko) Chrome/108.0.0.0 Safari/537.36" etag="5fduf_-7SxgamUh5-3rr" version="20.6.0" type="github">
  <diagram id="prtHgNgQTEPvFCAcTncT" name="Page-1">
    <mxGraphModel dx="1240" dy="690" grid="1" gridSize="10" guides="1" tooltips="1" connect="1" arrows="1" fold="1" page="1" pageScale="1" pageWidth="827" pageHeight="1169" math="0" shadow="0">
      <root>
        <mxCell id="0" />
        <mxCell id="1" parent="0" />
        <mxCell id="ClwotM2JT0QDWk72iHg4-1" value="扫码签名三端流程" style="swimlane;childLayout=stackLayout;resizeParent=1;resizeParentMax=0;startSize=20;horizontal=0;horizontalStack=1;fillColor=#f5f5f5;fontColor=#333333;strokeColor=#666666;" vertex="1" parent="1">
          <mxGeometry x="107" y="636" width="560" height="740" as="geometry" />
        </mxCell>
        <mxCell id="ClwotM2JT0QDWk72iHg4-2" value="客户端" style="swimlane;startSize=20;" vertex="1" parent="ClwotM2JT0QDWk72iHg4-1">
          <mxGeometry x="20" width="270" height="740" as="geometry" />
        </mxCell>
        <mxCell id="ClwotM2JT0QDWk72iHg4-14" style="edgeStyle=orthogonalEdgeStyle;rounded=0;orthogonalLoop=1;jettySize=auto;html=1;exitX=0.5;exitY=1;exitDx=0;exitDy=0;entryX=0.5;entryY=0;entryDx=0;entryDy=0;" edge="1" parent="ClwotM2JT0QDWk72iHg4-2" source="ClwotM2JT0QDWk72iHg4-6" target="ClwotM2JT0QDWk72iHg4-9">
          <mxGeometry relative="1" as="geometry" />
        </mxCell>
        <mxCell id="ClwotM2JT0QDWk72iHg4-6" value="url拼接" style="ellipse;whiteSpace=wrap;html=1;aspect=fixed;" vertex="1" parent="ClwotM2JT0QDWk72iHg4-2">
          <mxGeometry x="109.5" y="45" width="45" height="45" as="geometry" />
        </mxCell>
        <mxCell id="ClwotM2JT0QDWk72iHg4-39" style="edgeStyle=orthogonalEdgeStyle;rounded=0;orthogonalLoop=1;jettySize=auto;html=1;exitX=0.5;exitY=1;exitDx=0;exitDy=0;" edge="1" parent="ClwotM2JT0QDWk72iHg4-2" source="ClwotM2JT0QDWk72iHg4-9" target="ClwotM2JT0QDWk72iHg4-38">
          <mxGeometry relative="1" as="geometry" />
        </mxCell>
        <mxCell id="ClwotM2JT0QDWk72iHg4-9" value="生成二维码" style="rounded=0;whiteSpace=wrap;html=1;fontFamily=Helvetica;fontSize=12;fontColor=#000000;align=center;" vertex="1" parent="ClwotM2JT0QDWk72iHg4-2">
          <mxGeometry x="97" y="150" width="70" height="30" as="geometry" />
        </mxCell>
        <mxCell id="ClwotM2JT0QDWk72iHg4-15" value="orderId/nodeId/token&lt;br&gt;加密处理" style="text;html=1;align=center;verticalAlign=middle;whiteSpace=wrap;rounded=0;opacity=0;fillStyle=solid;" vertex="1" parent="ClwotM2JT0QDWk72iHg4-2">
          <mxGeometry x="167" y="100" width="55" height="30" as="geometry" />
        </mxCell>
        <mxCell id="ClwotM2JT0QDWk72iHg4-76" style="edgeStyle=orthogonalEdgeStyle;rounded=0;orthogonalLoop=1;jettySize=auto;html=1;exitX=0.5;exitY=1;exitDx=0;exitDy=0;entryX=1;entryY=0.5;entryDx=0;entryDy=0;" edge="1" parent="ClwotM2JT0QDWk72iHg4-2" source="ClwotM2JT0QDWk72iHg4-38" target="ClwotM2JT0QDWk72iHg4-45">
          <mxGeometry relative="1" as="geometry" />
        </mxCell>
        <mxCell id="ClwotM2JT0QDWk72iHg4-38" value="轮询" style="rounded=0;whiteSpace=wrap;html=1;fontFamily=Helvetica;fontSize=12;fontColor=#000000;align=center;" vertex="1" parent="ClwotM2JT0QDWk72iHg4-2">
          <mxGeometry x="138" y="467" width="70" height="26" as="geometry" />
        </mxCell>
        <mxCell id="ClwotM2JT0QDWk72iHg4-52" style="edgeStyle=orthogonalEdgeStyle;rounded=0;orthogonalLoop=1;jettySize=auto;html=1;exitX=0.5;exitY=1;exitDx=0;exitDy=0;entryX=0.5;entryY=0;entryDx=0;entryDy=0;" edge="1" parent="ClwotM2JT0QDWk72iHg4-2" source="ClwotM2JT0QDWk72iHg4-45" target="ClwotM2JT0QDWk72iHg4-47">
          <mxGeometry relative="1" as="geometry" />
        </mxCell>
        <mxCell id="ClwotM2JT0QDWk72iHg4-82" style="edgeStyle=orthogonalEdgeStyle;rounded=0;orthogonalLoop=1;jettySize=auto;html=1;entryX=0.5;entryY=1;entryDx=0;entryDy=0;" edge="1" parent="ClwotM2JT0QDWk72iHg4-2" source="ClwotM2JT0QDWk72iHg4-45" target="ClwotM2JT0QDWk72iHg4-67">
          <mxGeometry relative="1" as="geometry" />
        </mxCell>
        <mxCell id="ClwotM2JT0QDWk72iHg4-45" value="节点&lt;br&gt;更新" style="rhombus;whiteSpace=wrap;html=1;fontFamily=Helvetica;fontSize=12;fontColor=#000000;align=center;" vertex="1" parent="ClwotM2JT0QDWk72iHg4-2">
          <mxGeometry x="117" y="544" width="70" height="50" as="geometry" />
        </mxCell>
        <mxCell id="ClwotM2JT0QDWk72iHg4-47" value="结果展示" style="rounded=0;whiteSpace=wrap;html=1;fontFamily=Helvetica;fontSize=12;fontColor=#000000;align=center;" vertex="1" parent="ClwotM2JT0QDWk72iHg4-2">
          <mxGeometry x="117" y="626" width="70" height="30" as="geometry" />
        </mxCell>
        <mxCell id="ClwotM2JT0QDWk72iHg4-53" value="Y" style="text;html=1;strokeColor=none;fillColor=none;align=center;verticalAlign=middle;whiteSpace=wrap;rounded=0;fillStyle=solid;strokeWidth=1;opacity=0;" vertex="1" parent="ClwotM2JT0QDWk72iHg4-2">
          <mxGeometry x="136" y="594" width="60" height="30" as="geometry" />
        </mxCell>
        <mxCell id="ClwotM2JT0QDWk72iHg4-85" style="edgeStyle=orthogonalEdgeStyle;rounded=0;orthogonalLoop=1;jettySize=auto;html=1;entryX=0;entryY=0.5;entryDx=0;entryDy=0;" edge="1" parent="ClwotM2JT0QDWk72iHg4-2" source="ClwotM2JT0QDWk72iHg4-67" target="ClwotM2JT0QDWk72iHg4-38">
          <mxGeometry relative="1" as="geometry">
            <Array as="points">
              <mxPoint x="120" y="509" />
              <mxPoint x="120" y="480" />
              <mxPoint x="138" y="480" />
            </Array>
          </mxGeometry>
        </mxCell>
        <mxCell id="ClwotM2JT0QDWk72iHg4-86" style="edgeStyle=orthogonalEdgeStyle;rounded=0;orthogonalLoop=1;jettySize=auto;html=1;entryX=0;entryY=0.5;entryDx=0;entryDy=0;" edge="1" parent="ClwotM2JT0QDWk72iHg4-2" source="ClwotM2JT0QDWk72iHg4-67" target="ClwotM2JT0QDWk72iHg4-9">
          <mxGeometry relative="1" as="geometry" />
        </mxCell>
        <mxCell id="ClwotM2JT0QDWk72iHg4-67" value="异常" style="rhombus;whiteSpace=wrap;html=1;fontFamily=Helvetica;fontSize=12;fontColor=#000000;align=center;" vertex="1" parent="ClwotM2JT0QDWk72iHg4-2">
          <mxGeometry x="48" y="493" width="52" height="31" as="geometry" />
        </mxCell>
        <mxCell id="ClwotM2JT0QDWk72iHg4-77" value="Y" style="text;html=1;strokeColor=none;fillColor=none;align=center;verticalAlign=middle;whiteSpace=wrap;rounded=0;fillStyle=solid;strokeWidth=1;opacity=0;" vertex="1" parent="ClwotM2JT0QDWk72iHg4-2">
          <mxGeometry x="37" y="440" width="60" height="30" as="geometry" />
        </mxCell>
        <mxCell id="ClwotM2JT0QDWk72iHg4-51" value="N" style="text;html=1;strokeColor=none;fillColor=none;align=center;verticalAlign=middle;whiteSpace=wrap;rounded=0;fillStyle=solid;strokeWidth=1;opacity=0;" vertex="1" parent="ClwotM2JT0QDWk72iHg4-2">
          <mxGeometry x="76" y="544" width="60" height="30" as="geometry" />
        </mxCell>
        <mxCell id="ClwotM2JT0QDWk72iHg4-79" value="N" style="text;html=1;strokeColor=none;fillColor=none;align=center;verticalAlign=middle;whiteSpace=wrap;rounded=0;fillStyle=solid;strokeWidth=1;opacity=0;" vertex="1" parent="ClwotM2JT0QDWk72iHg4-2">
          <mxGeometry x="76" y="480" width="60" height="30" as="geometry" />
        </mxCell>
        <mxCell id="ClwotM2JT0QDWk72iHg4-3" value="手机端" style="swimlane;startSize=20;" vertex="1" parent="ClwotM2JT0QDWk72iHg4-1">
          <mxGeometry x="290" width="130" height="740" as="geometry" />
        </mxCell>
        <mxCell id="ClwotM2JT0QDWk72iHg4-16" value="" style="rounded=0;whiteSpace=wrap;html=1;fillStyle=solid;fillColor=#FFFFFF;opacity=0;" vertex="1" parent="ClwotM2JT0QDWk72iHg4-3">
          <mxGeometry x="25" y="160" width="80" height="30" as="geometry" />
        </mxCell>
        <mxCell id="ClwotM2JT0QDWk72iHg4-17" value="" style="rounded=0;whiteSpace=wrap;html=1;fillStyle=solid;fillColor=#FFFFFF;opacity=0;" vertex="1" parent="ClwotM2JT0QDWk72iHg4-3">
          <mxGeometry x="10" y="160" width="120" height="60" as="geometry" />
        </mxCell>
        <mxCell id="ClwotM2JT0QDWk72iHg4-21" style="edgeStyle=orthogonalEdgeStyle;rounded=0;orthogonalLoop=1;jettySize=auto;html=1;exitX=0.5;exitY=1;exitDx=0;exitDy=0;entryX=0.5;entryY=0;entryDx=0;entryDy=0;" edge="1" parent="ClwotM2JT0QDWk72iHg4-3" source="ClwotM2JT0QDWk72iHg4-18" target="ClwotM2JT0QDWk72iHg4-20">
          <mxGeometry relative="1" as="geometry" />
        </mxCell>
        <mxCell id="ClwotM2JT0QDWk72iHg4-18" value="扫码打开二维码" style="rounded=0;whiteSpace=wrap;html=1;fontFamily=Helvetica;fontSize=12;fontColor=#000000;align=center;" vertex="1" parent="ClwotM2JT0QDWk72iHg4-3">
          <mxGeometry x="25" y="150" width="70" height="30" as="geometry" />
        </mxCell>
        <mxCell id="ClwotM2JT0QDWk72iHg4-23" style="edgeStyle=orthogonalEdgeStyle;rounded=0;orthogonalLoop=1;jettySize=auto;html=1;exitX=0.5;exitY=1;exitDx=0;exitDy=0;entryX=0.5;entryY=0;entryDx=0;entryDy=0;" edge="1" parent="ClwotM2JT0QDWk72iHg4-3" source="ClwotM2JT0QDWk72iHg4-20" target="ClwotM2JT0QDWk72iHg4-22">
          <mxGeometry relative="1" as="geometry" />
        </mxCell>
        <mxCell id="ClwotM2JT0QDWk72iHg4-20" value="参数解码" style="rounded=0;whiteSpace=wrap;html=1;fontFamily=Helvetica;fontSize=12;fontColor=#000000;align=center;" vertex="1" parent="ClwotM2JT0QDWk72iHg4-3">
          <mxGeometry x="25" y="201" width="70" height="29" as="geometry" />
        </mxCell>
        <mxCell id="ClwotM2JT0QDWk72iHg4-92" style="edgeStyle=orthogonalEdgeStyle;rounded=0;orthogonalLoop=1;jettySize=auto;html=1;exitX=0.5;exitY=1;exitDx=0;exitDy=0;entryX=0.5;entryY=0;entryDx=0;entryDy=0;" edge="1" parent="ClwotM2JT0QDWk72iHg4-3" source="ClwotM2JT0QDWk72iHg4-22" target="ClwotM2JT0QDWk72iHg4-91">
          <mxGeometry relative="1" as="geometry" />
        </mxCell>
        <mxCell id="ClwotM2JT0QDWk72iHg4-22" value="绘制签名" style="rounded=0;whiteSpace=wrap;html=1;fontFamily=Helvetica;fontSize=12;fontColor=#000000;align=center;" vertex="1" parent="ClwotM2JT0QDWk72iHg4-3">
          <mxGeometry x="25" y="249" width="70" height="31" as="geometry" />
        </mxCell>
        <mxCell id="ClwotM2JT0QDWk72iHg4-63" value="异常处理" style="rounded=0;whiteSpace=wrap;html=1;fontFamily=Helvetica;fontSize=12;fontColor=#000000;align=center;" vertex="1" parent="ClwotM2JT0QDWk72iHg4-3">
          <mxGeometry x="24" y="359" width="74" height="30" as="geometry" />
        </mxCell>
        <mxCell id="ClwotM2JT0QDWk72iHg4-91" value="提交" style="rounded=0;whiteSpace=wrap;html=1;fontFamily=Helvetica;fontSize=12;fontColor=#000000;align=center;" vertex="1" parent="ClwotM2JT0QDWk72iHg4-3">
          <mxGeometry x="24" y="302" width="72" height="30" as="geometry" />
        </mxCell>
        <mxCell id="ClwotM2JT0QDWk72iHg4-4" value="服务端" style="swimlane;startSize=20;" vertex="1" parent="ClwotM2JT0QDWk72iHg4-1">
          <mxGeometry x="420" width="140" height="740" as="geometry" />
        </mxCell>
        <mxCell id="ClwotM2JT0QDWk72iHg4-36" style="edgeStyle=orthogonalEdgeStyle;rounded=0;orthogonalLoop=1;jettySize=auto;html=1;exitX=0.5;exitY=1;exitDx=0;exitDy=0;entryX=0.5;entryY=0;entryDx=0;entryDy=0;" edge="1" parent="ClwotM2JT0QDWk72iHg4-4" source="ClwotM2JT0QDWk72iHg4-29" target="ClwotM2JT0QDWk72iHg4-35">
          <mxGeometry relative="1" as="geometry" />
        </mxCell>
        <mxCell id="ClwotM2JT0QDWk72iHg4-29" value="校验&lt;br&gt;token等&lt;br&gt;参数" style="rhombus;whiteSpace=wrap;html=1;fontFamily=Helvetica;fontSize=12;fontColor=#000000;align=center;" vertex="1" parent="ClwotM2JT0QDWk72iHg4-4">
          <mxGeometry x="28" y="268" width="80" height="57" as="geometry" />
        </mxCell>
        <mxCell id="ClwotM2JT0QDWk72iHg4-94" value="" style="edgeStyle=orthogonalEdgeStyle;rounded=0;orthogonalLoop=1;jettySize=auto;html=1;" edge="1" parent="ClwotM2JT0QDWk72iHg4-4" source="ClwotM2JT0QDWk72iHg4-35" target="ClwotM2JT0QDWk72iHg4-89">
          <mxGeometry relative="1" as="geometry" />
        </mxCell>
        <mxCell id="ClwotM2JT0QDWk72iHg4-35" value="签名保存minio" style="rounded=0;whiteSpace=wrap;html=1;fontFamily=Helvetica;fontSize=12;fontColor=#000000;align=center;" vertex="1" parent="ClwotM2JT0QDWk72iHg4-4">
          <mxGeometry x="28" y="344" width="80" height="31" as="geometry" />
        </mxCell>
        <mxCell id="ClwotM2JT0QDWk72iHg4-40" value="更新签名节点状态" style="rounded=0;whiteSpace=wrap;html=1;fontFamily=Helvetica;fontSize=12;fontColor=#000000;align=center;" vertex="1" parent="ClwotM2JT0QDWk72iHg4-4">
          <mxGeometry x="28" y="460" width="80" height="40" as="geometry" />
        </mxCell>
        <mxCell id="ClwotM2JT0QDWk72iHg4-54" value="Y" style="text;html=1;strokeColor=none;fillColor=none;align=center;verticalAlign=middle;whiteSpace=wrap;rounded=0;fillStyle=solid;strokeWidth=1;opacity=0;" vertex="1" parent="ClwotM2JT0QDWk72iHg4-4">
          <mxGeometry x="58" y="309" width="60" height="30" as="geometry" />
        </mxCell>
        <mxCell id="ClwotM2JT0QDWk72iHg4-65" value="N" style="text;html=1;strokeColor=none;fillColor=none;align=center;verticalAlign=middle;whiteSpace=wrap;rounded=0;fillStyle=solid;strokeWidth=1;opacity=0;" vertex="1" parent="ClwotM2JT0QDWk72iHg4-4">
          <mxGeometry x="-17" y="295" width="60" height="30" as="geometry" />
        </mxCell>
        <mxCell id="ClwotM2JT0QDWk72iHg4-95" style="edgeStyle=orthogonalEdgeStyle;rounded=0;orthogonalLoop=1;jettySize=auto;html=1;" edge="1" parent="ClwotM2JT0QDWk72iHg4-4" source="ClwotM2JT0QDWk72iHg4-89" target="ClwotM2JT0QDWk72iHg4-40">
          <mxGeometry relative="1" as="geometry" />
        </mxCell>
        <mxCell id="ClwotM2JT0QDWk72iHg4-89" value="签名进行OCR比对" style="rounded=0;whiteSpace=wrap;html=1;fontFamily=Helvetica;fontSize=12;fontColor=#000000;align=center;" vertex="1" parent="ClwotM2JT0QDWk72iHg4-4">
          <mxGeometry x="28" y="397" width="80" height="31" as="geometry" />
        </mxCell>
        <mxCell id="ClwotM2JT0QDWk72iHg4-19" style="edgeStyle=orthogonalEdgeStyle;rounded=0;orthogonalLoop=1;jettySize=auto;html=1;exitX=1;exitY=0.5;exitDx=0;exitDy=0;entryX=0;entryY=0.5;entryDx=0;entryDy=0;" edge="1" parent="ClwotM2JT0QDWk72iHg4-1" source="ClwotM2JT0QDWk72iHg4-9" target="ClwotM2JT0QDWk72iHg4-18">
          <mxGeometry relative="1" as="geometry" />
        </mxCell>
        <mxCell id="ClwotM2JT0QDWk72iHg4-43" value="" style="endArrow=classic;startArrow=classic;html=1;rounded=0;exitX=1;exitY=0.5;exitDx=0;exitDy=0;entryX=0;entryY=0.5;entryDx=0;entryDy=0;" edge="1" parent="ClwotM2JT0QDWk72iHg4-1" source="ClwotM2JT0QDWk72iHg4-38" target="ClwotM2JT0QDWk72iHg4-40">
          <mxGeometry width="50" height="50" relative="1" as="geometry">
            <mxPoint x="380" y="400" as="sourcePoint" />
            <mxPoint x="430" y="350" as="targetPoint" />
          </mxGeometry>
        </mxCell>
        <mxCell id="ClwotM2JT0QDWk72iHg4-96" style="edgeStyle=orthogonalEdgeStyle;rounded=0;orthogonalLoop=1;jettySize=auto;html=1;entryX=0.5;entryY=0;entryDx=0;entryDy=0;" edge="1" parent="ClwotM2JT0QDWk72iHg4-1" source="ClwotM2JT0QDWk72iHg4-91" target="ClwotM2JT0QDWk72iHg4-29">
          <mxGeometry relative="1" as="geometry">
            <Array as="points">
              <mxPoint x="403" y="318" />
              <mxPoint x="403" y="248" />
              <mxPoint x="488" y="248" />
            </Array>
          </mxGeometry>
        </mxCell>
        <mxCell id="ClwotM2JT0QDWk72iHg4-98" style="edgeStyle=orthogonalEdgeStyle;rounded=0;orthogonalLoop=1;jettySize=auto;html=1;entryX=1;entryY=0.5;entryDx=0;entryDy=0;" edge="1" parent="ClwotM2JT0QDWk72iHg4-1" source="ClwotM2JT0QDWk72iHg4-29" target="ClwotM2JT0QDWk72iHg4-63">
          <mxGeometry relative="1" as="geometry">
            <Array as="points">
              <mxPoint x="413" y="297" />
              <mxPoint x="413" y="374" />
            </Array>
          </mxGeometry>
        </mxCell>
        <mxCell id="ClwotM2JT0QDWk72iHg4-99" style="edgeStyle=orthogonalEdgeStyle;rounded=0;orthogonalLoop=1;jettySize=auto;html=1;" edge="1" parent="1" source="ClwotM2JT0QDWk72iHg4-63">
          <mxGeometry relative="1" as="geometry">
            <mxPoint x="350" y="800" as="targetPoint" />
          </mxGeometry>
        </mxCell>
      </root>
    </mxGraphModel>
  </diagram>
</mxfile>
